# Three-body trajectories as tubes
# Reason for termination: TrajectoryTooLarge(150AU)
# Steps: 91825

g body_0
v -3373269720261.406250 3634510616656.944824 -2900510535230.683594
v -3375923446579.797852 3632898333687.349121 -2905338450657.608398
v -3381291211703.551758 3633270398811.362793 -2907338238705.431152
v -3386228651622.806641 3635408861325.425293 -2905338450657.608398
v -3387843480996.264648 3638061038891.424316 -2900510535230.683594
v -3385189754677.873047 3639673321861.020020 -2895682619803.758789
v -3379821989554.119141 3639301256737.006348 -2893682831755.936035
v -3374884549634.864258 3637162794222.943848 -2895682619803.758789
v -3225467509398.029785 4250265075338.100586 -3185972250144.433594
v -3227334140785.254883 4249106215014.567871 -3191275382910.193848
v -3231883742581.083984 4246381067423.830078 -3193472012424.836914
v -3236451219756.916992 4243685987065.073242 -3191275382910.193848
v -3238361006128.980957 4242599715460.771484 -3185972250144.433594
v -3236494374741.755859 4243758575784.304199 -3180669117378.673340
v -3231944772945.926758 4246483723375.041992 -3178472487864.030273
v -3227377295770.093750 4249178803733.798828 -3180669117378.673340
v -6698674612740.688477 9232159276908.914062 -2952305164382.596680
v -6700299691704.250977 9230646743846.693359 -2957598731158.824219
v -6704587984103.450195 9227523725086.607422 -2959791398310.865723
v -6709027466410.256836 9224619642662.771484 -2957598731158.824219
v -6711017550099.256836 9223635668672.820312 -2952305164382.596680
v -6709392471135.694336 9225148201735.041016 -2947011597606.369141
v -6705104178736.495117 9228271220495.126953 -2944818930454.327637
v -6700664696429.688477 9231175302918.962891 -2947011597606.369141
v -8401353580522.015625 11744698560677.044922 -3738393637130.328125
v -8402976236177.450195 11743163398091.474609 -3743681429824.474121
v -8406239039139.562500 11738979225843.019531 -3745871705273.406738
v -8409230683684.499023 11734597075287.517578 -3743681429824.474121
v -8410198705011.634766 11732583950788.025391 -3738393637130.328125
v -8408576049356.200195 11734119113373.595703 -3733105844436.182129
v -8405313246394.087891 11738303285622.050781 -3730915568987.249512
v -8402321601849.151367 11742685436177.552734 -3733105844436.182129
v -11810001275339.792969 12964452100098.281250 -2467332180434.420898
v -11810967616354.419922 12962312695214.208984 -2472570464399.801758
v -11814472220156.191406 12958317655164.566406 -2474740232661.823730
v -11818462137368.773438 12954807220228.212891 -2472570464399.801758
v -11820600128601.781250 12953837755581.035156 -2467332180434.420898
v -11819633787587.154297 12955977160465.107422 -2462093896469.040039
v -11816129183785.382812 12959972200514.750000 -2459924128207.018066
v -11812139266572.800781 12963482635451.103516 -2462093896469.040039
v -13937940908915.408203 17273326923404.054688 -4975187339897.243164
v -13937987756026.125000 17270183586900.529297 -4979990227371.496094
v -13941195380985.093750 17265858794095.654297 -4981979648501.883789
v -13945684800594.355469 17262885949960.076172 -4979990227371.496094
v -13948826173733.990234 17263006506269.589844 -4975187339897.243164
v -13948779326623.273438 17266149842773.115234 -4970384452422.990234
v -13945571701664.304688 17270474635577.990234 -4968395031292.602539
v -13941082282055.042969 17273447479713.568359 -4970384452422.990234
v -17173658064559.240234 18620728844954.019531 -6115830701631.197266
v -17172921441243.480469 18618045408293.273438 -6120851363031.346680
v -17174298979866.453125 18612875492435.566406 -6122930989075.371094
v -17176983736985.511719 18608247563974.019531 -6120851363031.346680
v -17179403018291.990234 18606872600635.714844 -6115830701631.197266
v -17180139641607.750000 18609556037296.460938 -6110810040231.047852
v -17178762102984.777344 18614725953154.167969 -6108730414187.023438
v -17176077345865.718750 18619353881615.714844 -6110810040231.047852
v -19908463545776.781250 19749474614965.601562 -7173294910667.791016
v -19907651691554.539062 19746763087863.445312 -7178288807003.581055
v -19908991559388.707031 19741578843920.265625 -7180357346594.951172
v -19911698272873.812500 19736958742927.320312 -7178288807003.581055
v -19914186275959.742188 19735609177386.750000 -7173294910667.791016
v -19914998130181.984375 19738320704488.906250 -7168301014332.000977
v -19913658262347.816406 19743504948432.085938 -7166232474740.630859
v -19910951548862.710938 19748125049425.031250 -7168301014332.000977
f 1 2 10 9
f 2 3 11 10
f 3 4 12 11
f 4 5 13 12
f 5 6 14 13
f 6 7 15 14
f 7 8 16 15
f 8 1 9 16
f 9 10 18 17
f 10 11 19 18
f 11 12 20 19
f 12 13 21 20
f 13 14 22 21
f 14 15 23 22
f 15 16 24 23
f 16 9 17 24
f 17 18 26 25
f 18 19 27 26
f 19 20 28 27
f 20 21 29 28
f 21 22 30 29
f 22 23 31 30
f 23 24 32 31
f 24 17 25 32
f 25 26 34 33
f 26 27 35 34
f 27 28 36 35
f 28 29 37 36
f 29 30 38 37
f 30 31 39 38
f 31 32 40 39
f 32 25 33 40
f 33 34 42 41
f 34 35 43 42
f 35 36 44 43
f 36 37 45 44
f 37 38 46 45
f 38 39 47 46
f 39 40 48 47
f 40 33 41 48
f 41 42 50 49
f 42 43 51 50
f 43 44 52 51
f 44 45 53 52
f 45 46 54 53
f 46 47 55 54
f 47 48 56 55
f 48 41 49 56
f 49 50 58 57
f 50 51 59 58
f 51 52 60 59
f 52 53 61 60
f 53 54 62 61
f 54 55 63 62
f 55 56 64 63
f 56 49 57 64

g body_1
v -3959103283250.647461 -200176463898.785767 -1257842738670.589844
v -3962001410126.080566 -199157841950.513336 -1262691837252.481445
v -3967184136672.467285 -200591546855.860840 -1264700399650.385254
v -3971615491969.005859 -203637733725.716583 -1262691837252.481445
v -3972699648182.677734 -206511987605.241882 -1257842738670.589844
v -3969801521307.244629 -207530609553.514313 -1252993640088.698242
v -3964618794760.857910 -206096904648.166809 -1250985077690.794434
v -3960187439464.319336 -203050717778.311066 -1252993640088.697998
v -6975452423588.944336 6272998320649.989258 1904977321561.120850
v -6977604449472.636719 6272488701370.441406 1899680194046.859375
v -6982625206308.774414 6270777494621.363281 1897486051988.832520
v -6987573602836.125000 6268867102108.340820 1899680194046.859375
v -6989550935480.967773 6267876605856.047852 1904977321561.120850
v -6987398909597.275391 6268386225135.595703 1910274449075.382324
v -6982378152761.137695 6270097431884.673828 1912468591133.409180
v -6977429756233.787109 6272007824397.696289 1910274449075.382324
v -6474919666146.851562 6718185619798.112305 -902034743897.453247
v -6478788329498.949219 6715442391125.379883 -905268724020.111450
v -6484302997674.582031 6716305238301.394531 -906608282447.361572
v -6488233252848.452148 6720268717152.702148 -905268724020.111450
v -6488276804843.292969 6725011075522.385742 -902034743897.453247
v -6484408141491.195312 6727754304195.118164 -898800763774.795044
v -6478893473315.562500 6726891457019.103516 -897461205347.544922
v -6474963218141.692383 6722927978167.795898 -898800763774.795044
v -5465069892032.766602 9230688104423.248047 -2410372478459.468262
v -5466537721261.672852 9228790533434.453125 -2415587379111.807617
v -5471003877531.874023 9225902977625.675781 -2417747461688.434570
v -5475852147071.963867 9223716928027.585938 -2415587379111.807617
v -5478242479339.397461 9223512942846.724609 -2410372478459.468262
v -5476774650110.491211 9225410513835.519531 -2405157577807.128906
v -5472308493840.290039 9228298069644.296875 -2402997495230.501953
v -5467460224300.200195 9230484119242.386719 -2405157577807.128906
v -11634258518081.880859 16196437885064.095703 -2895989920142.489746
v -11635719673933.599609 16194774474177.677734 -2901286010673.857910
v -11639613802205.722656 16191172547266.761719 -2903479723199.506348
v -11643659775370.062500 16187742064265.087891 -2901286010673.857910
v -11645487517219.943359 16186492555589.544922 -2895989920142.489746
v -11644026361368.224609 16188155966475.962891 -2890693829611.121582
v -11640132233096.101562 16191757893386.878906 -2888500117085.473145
v -11636086259931.761719 16195188376388.552734 -2890693829611.121582
f 65 66 74 73
f 66 67 75 74
f 67 68 76 75
f 68 69 77 76
f 69 70 78 77
f 70 71 79 78
f 71 72 80 79
f 72 65 73 80
f 73 74 82 81
f 74 75 83 82
f 75 76 84 83
f 76 77 85 84
f 77 78 86 85
f 78 79 87 86
f 79 80 88 87
f 80 73 81 88
f 81 82 90 89
f 82 83 91 90
f 83 84 92 91
f 84 85 93 92
f 85 86 94 93
f 86 87 95 94
f 87 88 96 95
f 88 81 89 96
f 89 90 98 97
f 90 91 99 98
f 91 92 100 99
f 92 93 101 100
f 93 94 102 101
f 94 95 103 102
f 95 96 104 103
f 96 89 97 104

g body_2
v 1554355034510.385010 -4092035987851.392578 -941648415024.848267
v 1553320330998.529541 -4094303626003.675781 -946819265338.807861
v 1549395684588.928711 -4097903650283.554199 -948961101667.851196
v 1544880099920.808105 -4100727215292.747070 -946819265338.807861
v 1542418745250.708740 -4101120314943.111328 -941648415024.848267
v 1543453448762.564209 -4098852676790.828125 -936477564710.888672
v 1547378095172.165039 -4095252652510.949707 -934335728381.845337
v 1551893679840.285645 -4092429087501.756836 -936477564710.888672
v -4468549966562.136719 3821671823271.639160 -3206807612462.909668
v -4470095704042.884766 3820106468609.027344 -3212109578846.937500
v -4473987454537.491211 3816503455111.073242 -3214305725230.448242
v -4477945483387.586914 3812973379219.464844 -3212109578846.937500
v -4479651230973.050781 3811584111515.300293 -3206807612462.909668
v -4478105493492.302734 3813149466177.912109 -3201505646078.881836
v -4474213742997.696289 3816752479675.866211 -3199309499695.371094
v -4470255714147.600586 3820282555567.474609 -3201505646078.881836
v -7608159604773.319336 5990873660414.409180 -1247363114442.141846
v -7609984240276.272461 5989642240456.709961 -1252664510228.692383
v -7614532777822.886719 5986914737491.573242 -1254860420262.989258
v -7619140745807.317383 5984288885764.561523 -1252664510228.692383
v -7621108859079.266602 5983302873604.579102 -1247363114442.141846
v -7619284223576.313477 5984534293562.278320 -1242061718655.591309
v -7614735686029.699219 5987261796527.415039 -1239865808621.294434
v -7610127718045.268555 5989887648254.426758 -1242061718655.591309
v -9320503869149.531250 12120890577999.103516 -3464598682611.231445
v -9322027413938.224609 12119127778024.326172 -3469844808290.462402
v -9326474995668.060547 12116221319084.119141 -3472017824696.713867
v -9331241281281.464844 12113873765407.177734 -3469844808290.462402
v -9333534245308.250000 12113460282099.052734 -3464598682611.231445
v -9332010700519.556641 12115223082073.830078 -3459352556932.000488
v -9327563118789.720703 12118129541014.037109 -3457179540525.749023
v -9322796833176.316406 12120477094690.978516 -3459352556932.000488
v -11320443782002.130859 12500376369949.296875 -2356409837591.656250
v -11321291594649.109375 12498157480868.500000 -2361635565491.122070
v -11324654405134.582031 12494039636668.027344 -2363800132860.352539
v -11328562324683.853516 12490435014632.777344 -2361635565491.122070
v -11330726147025.619141 12489455153463.769531 -2356409837591.656250
v -11329878334378.640625 12491674042544.566406 -2351184109692.190430
v -11326515523893.167969 12495791886745.039062 -2349019542322.959961
v -11322607604343.896484 12499396508780.289062 -2351184109692.190430
v -13928739437237.683594 16459978837012.525391 -4558978812816.460938
v -13929353604184.449219 16457380470711.107422 -4564060326236.857422
v -13932869759845.951172 16453360916049.843750 -4566165158012.966797
v -13937228187923.093750 16450274773634.601562 -4564060326236.857422
v -13939875780358.917969 16449929863836.814453 -4558978812816.460938
v -13939261613412.152344 16452528230138.232422 -4553897299396.064453
v -13935745457750.650391 16456547784799.496094 -4551792467619.955078
v -13931387029673.507812 16459633927214.738281 -4553897299396.064453
v -16447508515373.966797 18181796252578.621094 -4641524754844.999023
v -16447952998109.730469 18179494995562.042969 -4646764710794.983398
v -16450422080045.945312 18174789337124.109375 -4648935171615.704102
v -16453469406470.986328 18170435788157.867188 -4646764710794.983398
v -16455309894894.044922 18168984598603.285156 -4641524754844.999023
v -16454865412158.281250 18171285855619.863281 -4636284798895.014648
v -16452396330222.066406 18175991514057.796875 -4634114338074.293945
v -16449349003797.025391 18180345063024.039062 -4636284798895.014648
v -19181976268226.054688 19659178027424.847656 -5517856071718.219727
v -19181754099162.761719 19656561187824.351562 -5522960312947.738281
v -19183750421496.363281 19651611930470.984375 -5525074558890.628906
v -19186795816678.699219 19647229463198.671875 -5522960312947.738281
v -19189106333514.742188 19645980975898.878906 -5517856071718.219727
v -19189328502578.035156 19648597815499.375000 -5512751830488.701172
v -19187332180244.433594 19653547072852.742188 -5510637584545.810547
v -19184286785062.097656 19657929540125.054688 -5512751830488.701172
f 105 106 114 113
f 106 107 115 114
f 107 108 116 115
f 108 109 117 116
f 109 110 118 117
f 110 111 119 118
f 111 112 120 119
f 112 105 113 120
f 113 114 122 121
f 114 115 123 122
f 115 116 124 123
f 116 117 125 124
f 117 118 126 125
f 118 119 127 126
f 119 120 128 127
f 120 113 121 128
f 121 122 130 129
f 122 123 131 130
f 123 124 132 131
f 124 125 133 132
f 125 126 134 133
f 126 127 135 134
f 127 128 136 135
f 128 121 129 136
f 129 130 138 137
f 130 131 139 138
f 131 132 140 139
f 132 133 141 140
f 133 134 142 141
f 134 135 143 142
f 135 136 144 143
f 136 129 137 144
f 137 138 146 145
f 138 139 147 146
f 139 140 148 147
f 140 141 149 148
f 141 142 150 149
f 142 143 151 150
f 143 144 152 151
f 144 137 145 152
f 145 146 154 153
f 146 147 155 154
f 147 148 156 155
f 148 149 157 156
f 149 150 158 157
f 150 151 159 158
f 151 152 160 159
f 152 145 153 160
f 153 154 162 161
f 154 155 163 162
f 155 156 164 163
f 156 157 165 164
f 157 158 166 165
f 158 159 167 166
f 159 160 168 167
f 160 153 161 168

